<?xml version="1.0" encoding="UTF-8"?>
<svg id="Layer_1" data-name="Layer 1" xmlns="http://www.w3.org/2000/svg" viewBox="0 0 185.17 180.89">
  <defs>
    <style>
      .cls-1 {
        fill: #010101;
      }

      .cls-1, .cls-2, .cls-3 {
        stroke-width: 0px;
      }

      .cls-2 {
        fill: #f8b232;
      }

      .cls-3 {
        fill: #fff;
      }
    </style>
  </defs>
  <path class="cls-2" d="M59.87,29.96c1.02.51,2.05.37,3.16.31,1.78-.09,3.59.19,5.36.5,1.45.25,2.84.81,4.27,1.18,1.64.43,3.35.66,4.93,1.24,1.46.54,2.84,1.36,4.17,2.19,2.1,1.31,4.25,2.59,6.17,4.15,1.75,1.42,3.24,3.17,4.8,4.81.76.8,1.44,1.68,2.11,2.56.36.48.64,1.03.8,1.7-2.77-.23-4.16-2.93-6.81-3.49-.05.63-.09,1.3-.17,2.29-2.4-1.57-4.64-3.03-6.87-4.5-.06.06-.12.11-.18.17.58.87,1.18,1.73,1.71,2.63.12.21.03.81-.02.81-.48.06-1.09.22-1.45,0-2.43-1.43-4.8-2.95-7.19-4.44-.1.07-.21.14-.31.21.32.73.65,1.46.97,2.19-.08.15-.15.29-.23.44-1.3-.33-2.61-.61-3.89-1.01-1.13-.35-2.2-.85-3.31-1.26-.75-.28-1.51-.55-2.29-.76-.38-.1-.79-.05-1.3-.08.93,1.14,1.75,2.02,2.42,3.01,1.62,2.37,3.23,4.75,4.72,7.21.71,1.18,1.15,2.52,1.67,3.81.73,1.78,1.51,3.55,2.09,5.39.42,1.35.66,2.78.79,4.19.19,1.98.31,3.98.25,5.97-.04,1.21-.52,2.4-.71,3.61-.24,1.49-.35,3.01-.62,4.49-.06.35-.55.63-.85.93-.12-.06-.25-.13-.37-.19-.4-2.5-.81-5-1.25-7.75-.21.84-.36,1.46-.52,2.1-.47.12-.97.25-1.7.43-.39-2.59-.76-5.1-1.13-7.55-.97.6-.37,3.21-2.5,2.7-.42-3.24-.81-6.34-1.26-9.85-.58,1-.98,1.69-1.55,2.66-.59-.82-1.15-1.53-1.62-2.29-.83-1.35-.98-2.98-1.95-4.32-.65-.91-.78-2.19-1.22-3.27-.3-.73-.73-1.41-1.09-2.1-1.52,1.03-2.21.83-2.57-.77-.13-.59-.26-1.18-.36-1.77-.09-.55-.15-1.1-.22-1.67-.46.52-.92,1.02-1.47,1.64-.52-1.24-.94-2.21-1.43-3.38-1.14-.37-2.57-.83-4.11-1.33,0,1.54.03,3.07-.01,4.6-.02.6-.34,1.2-.28,1.78.14,1.42.44,2.82.66,4.24.4,2.57.71,5.16,1.2,7.71.24,1.27.8,2.47,1.18,3.72.12.41.02.9.16,1.3.74,2.09,1.51,4.16,2.3,6.23.74,1.95,1.38,3.95,2.29,5.83,1.09,2.25,2.29,4.47,3.7,6.52.77,1.13,1.56,2.25,2.33,3.39.95,1.4,2.11,2.67,3.21,3.97,1.19,1.4,2.38,2.81,3.62,4.16,1.67,1.82,3.19,3.85,5.13,5.32,2.08,1.57,3.76,3.57,5.86,5.1.95.69,1.56,1.63,1.51,3.07-.15,4.14-.05,8.29-.05,12.4-.18.05-.32.12-.35.09-.97-.93-1.94-1.86-2.88-2.82-1.08-1.1-2.13-2.24-3.21-3.35-1.49-1.54-2.99-3.09-4.51-4.6-.97-.97-2.06-1.82-2.95-2.85-1.03-1.19-1.86-2.55-2.83-3.78-.54-.69-1.3-1.21-1.81-1.91-1.9-2.69-3.73-5.42-5.6-8.14-1-1.46-1.96-2.96-3.06-4.33-.5-.62-.46-1.38-.98-2.07-1.1-1.45-1.54-3.38-2.34-5.08-.49-1.05-1.18-2.01-1.69-3.05-.22-.44-.12-1.03-.32-1.48-.57-1.23-.67-2.77-1.26-3.75-1.41-2.31-.9-5.06-2.28-7.35-.67-1.1-.53-2.69-.76-4.05-.26-1.54-.6-3.07-.74-4.62-.09-.99.22-2.01.18-3.01-.05-.99-.41-1.96-.46-2.94-.05-.94.2-1.89.21-2.84,0-1.02-.65-2.05.22-3.07.19-.22-.19-.93-.41-1.81-.42,1.22-.71,2.05-1.13,3.25-.76-.57-1.47-1.1-2.32-1.73-.1.78-.19,1.65-.33,2.52-.08.47-.12,1.22-.39,1.33-.52.21-1.19.06-2.2.06-.23,1.22-.52,2.73-.85,4.45-.24-.06-.64-.22-1.05-.23-.34,0-.97.14-.99.28-.21,1.65-1.42,2.93-1.5,4.68-.05,1.11-.88,2.17-1.3,3.28-.41,1.09-.74,2.2-1.15,3.44-1.22-.3-1.74-1.28-2.37-2.57-.23,2.76-.44,5.21-.65,7.65-.05-.01-.1-.03-.15-.04-.05.8-.1,1.6-.16,2.46-.37.13-.76.28-1.43.52-.35-1.32-.68-2.57-1.01-3.83-.15.02-.3.04-.45.06v7.65c-1.13-.47-1.83-.77-2.54-1.06-.27,2.1-.57,4.38-.87,6.67-.12.07-.23.13-.35.2-.32-.47-.84-.91-.94-1.43-.59-3.15-1.19-6.31-1.54-9.49-.12-1.04-.81-2.21.13-3.33.22-.26-.36-1.13-.16-1.47.56-.94.06-1.92.27-2.78.5-2.07,1.28-4.06,1.92-6.09.25-.79.38-1.64.71-2.4.46-1.05,1.11-2.02,1.58-3.07.66-1.47,1.22-2.98,1.82-4.48.31-.79.61-1.58.94-2.41-1.07-.71-1.51.5-1.93.97-1.38,1.54-2.56,3.25-3.83,4.88-.19.24-.49.4-.73.59-.18-.31-.45-.6-.52-.93-.18-.84-.27-1.7-.4-2.61-1.97,2.12-3.93,4.24-5.91,6.35-.22.24-.61.33-1.19.63.18-1.37.31-2.35.44-3.33-2.23,1.6-3.05,4.39-5.56,5.37-.16-.11-.32-.22-.47-.33.22-.94.43-1.89.59-2.56-1.42,1.53-2.97,3.2-4.62,4.86-.1-.98-.1-1.96-.01-3.1,6.33-13.87,16.86-21.88,31.53-24.1-3.54-.72-7.35-1.49-11.17-2.26-.04-.56-.07-.98-.12-1.64-2.21.23-4.34.45-6.55.67.03-.46.02-.73.08-.98.09-.32.24-.63.37-.94-.49-.14-.96-.33-1.46-.39-.42-.04-.86.16-1.29.12-1.61-.14-3.21-.34-4.81-.5-.89-.09-1.79-.15-2.62-.22v-2.32c3.06-.8,5.97-1.58,8.88-2.33.63-.16,1.31-.13,1.92-.32,2.38-.73,4.81-.28,7.21-.33,1.39-.03,2.79.32,4.19.5.13.02.25.06.37.09,1.68.48,3.35.97,5.03,1.46-2.9-2.42-5.85-4.61-8.78-6.83-2.84-2.14-5.65-4.31-8.63-6.58.26-.25.57-.8.9-.82,1.56-.09,3.14-.12,4.7,0,.98.08,1.93.49,2.89.73,1.18.29,2.4.46,3.53.87,1.11.4,2.18.95,3.18,1.57,5.05,3.12,9.72,6.69,13.47,11.92,0-1.95.13-3.54-.03-5.09-.21-2.02-.67-4.01-.98-6.03-.13-.85-.2-1.71-.19-2.57,0-.55.34-1.1.3-1.64-.25-3.29-1.68-6.45-1-9.87.13-.67.33-1.04.85-1.34,0,0,.13,0,.2,0,.63.82,1.21,1.63,1.76,2.46.66.98,1.37,1.93,1.92,2.96.74,1.39,1.39,2.86,2.12,4.23.64,1.2.55,2.46,1.05,3.59.57,1.27,1.21,2.51,1.25,3.93.02.89-.11,1.78-.11,2.68-.02,2.14,0,4.29,0,6.62,8.37-8.77,18.6-12.08,30.68-9.83.02.2.05.57.1,1.06-3.61,1.38-7.19,2.74-10.7,4.07.54.66,1.06,1.28,1.73,2.08-2.37.58-4.42,1.08-6.32,1.54.11.34.5.91.36,1.28-.12.33-.84.41-1.29.64-1.06.53-2.1,1.08-3.16,1.61-.53.26-1.08.48-1.73.84-.15.21-.19.31-.22.4.13-.06.27-.12.4-.18Z"/>
  <path class="cls-2" d="M185.17,61.62c-1.35.11-2.63-.05-3.94-.57-.94-.37-2.14-.07-3.21-.15-.96-.07-1.91-.24-2.85-.41-1.09-.19-2.18-.4-3.27-.62-1.12-.23-2.23-.51-3.35-.73-.73-.14-1.48-.23-2.23-.3-1.02-.1-2.04-.15-3.08-.23,1.59,1.23,3.11,2.45,4.68,3.61,1.47,1.08,2.52,2.55,3.78,3.82,1.67,1.68,2.71,3.77,4.01,5.67.76,1.12.88,2.66,1.49,3.91,1.11,2.28,1.32,4.73,1.65,7.16.09.69-.19,1.42-.2,2.13,0,.77.07,1.55.21,2.3.32,1.68.23,1.81-1.17,1.73-2.02-3.02-3.94-5.89-5.77-8.64-.48.27-1.01.58-1.68.97-.18-.71-.43-1.2-.41-1.69.06-1.45-.59-2.63-1.37-3.73-.12-.16-.72.03-1.45.08-1.31-1.94-2.9-4.29-4.64-6.89.25,1.7.48,3.14.65,4.58.04.36-.13.75-.17,1.12-.06.46-.18.94-.12,1.39.2,1.28.96,2.7.61,3.79-.55,1.74.53,3.49-.38,5.11-.1.17-.05.44-.03.65.21,2.09-.86,3.89-1.35,5.81-.61,2.39-2.44,4.1-3.86,6.02-.41.55-1.04.93-1.74,1.54-.13-1.14-.9-1.88-.04-2.94.32-.39-.04-1.43-.21-2.14-.2-.81-.2-1.43.16-2.29.36-.84-.11-2.03-.22-3.13-.43.06-.87.12-1.65.23.76-2.42,1.45-4.63,2.16-6.91-.49.27-.89.5-1.29.73-.15-.47-.39-.93-.42-1.41-.13-1.76-.16-3.52-.29-5.27-.07-.95-.31-1.89-.37-2.84-.03-.45.18-.91.24-1.38.05-.38.11-.77.05-1.14-.21-1.28-.54-2.55-.67-3.84-.06-.64.2-1.31.37-2.24-.41.23-.73.47-1.09.6-.61.21-1.26.34-1.89.51.04-.44.12-.88.1-1.32-.05-1.01-.15-2.02-.5-3.11-1.08,1.68-2.16,3.36-3.24,5.04-.07.11-.21.19-.25.3-.65,1.87-1.74,3.53-2.56,5.31-.6,1.3-1.26,2.57-1.78,3.9-.51,1.3-.89,2.64-1.29,3.98-.49,1.64-.96,3.29-1.42,4.94-.47,1.7-.94,3.39-1.39,5.09-.14.55-.2,1.11-.36,2-.5-.34-1.04-.57-1.38-.97-.61-.73-.99-1.67-1.67-2.32-1.38-1.3-1.53-2.08-.79-3.79.81-1.87,1.43-3.82,2.17-5.72.31-.79.69-1.55,1.07-2.32.6-1.22,1.17-2.46,1.85-3.64,1.38-2.4,2.77-4.79,4.24-7.13,1.4-2.22,2.93-4.34,4.34-6.55.22-.35.07-.93.09-1.4-.35.14-.7.27-1.04.43-.9.42-1.8.86-2.71,1.27-1.45.66-3.01,1.13-4.31,2-1.14.76-2.35,1.22-3.56,1.78-.9.41-1.61,1.24-2.5,1.68-1.23.6-2.55,1-3.94,1.54-.1-.51-.19-.92-.3-1.48-1.83,2.11-2.2,5.18-4.78,6.71-.15-.55-.24-.97-.4-1.37-.08-.19-.28-.44-.45-.46-.18-.02-.42.17-.58.33-1.58,1.52-4.53,3.93-6.96,3.19.3-1.03.42-2.17.94-3.09,1.22-2.2,2.5-4.4,3.99-6.42,1.29-1.75,2.77-3.42,4.42-4.84,1.6-1.37,3.54-2.33,5.28-3.54,1.14-.8,2.54-1.18,3.6-1.94.93-.66,2.1-.5,2.94-1.3-5.09-1.17-10.1-2.32-15.32-3.52.16-.51.33-1.04.45-1.42-3.18-.53-6.38-1.06-9.89-1.65.37-.52.54-1.06.86-1.17,1.47-.54,2.97-1.02,4.49-1.4,1.09-.27,2.23-.31,3.33-.56.54-.12.99-.57,1.53-.73.61-.18,1.27-.29,1.92-.29.82,0,1.7.37,2.45.18,2.14-.54,4.2-.06,6.23.36,1.87.38,3.63,1.34,5.51,1.67,1.46.26,2.74.75,4.03,1.38.22.11.74-.09.91-.31.11-.15-.09-.62-.25-.88-.47-.76-.99-1.49-1.51-2.22-.51-.72-1.07-1.4-1.55-2.13-.38-.59-.64-1.26-1-1.87-.66-1.12-1.32-2.23-2.03-3.31-.41-.63-.96-1.17-1.38-1.79-.55-.81-1.04-1.65-1.53-2.49-.3-.52-.53-1.07-.79-1.61l.32-.38c.71.15,1.52.13,2.11.48,2.81,1.67,5.55,3.45,8.32,5.19,1.75,1.11,2.85,2.82,4.09,4.41,1.33,1.7,2.38,3.52,2.96,5.61.1.37.51.66.79,1.01,2.01-5.16,4.83-9.72,9.32-13.02,1.57-1.16,3.46-1.88,5.2-2.8.12.07.24.14.36.21-.23.67-.37,1.39-.7,2.01-.76,1.42-1.92,2.71-2.35,4.22-.38,1.34-1.65,2.1-1.74,3.64-.06.94-1.28,1.77-1.82,2.73-1.28,2.31-2.47,4.67-3.7,7.01.6-.3,1.29-.62,1.94-1,.84-.49,1.58-1.21,2.47-1.53,1.81-.65,3.7-1.08,5.55-1.64.55-.17,1.05-.5,1.6-.65.56-.16,1.14-.24,1.72-.27.99-.04,1.99-.04,2.99,0,.49.01.98.13,1.47.19.28.04.56.06.84.1.5.09.99.21,1.49.28.58.08,1.2.03,1.75.2,1.04.34,2.04.82,3.07,1.2.22.08.51-.05.8-.09.2,1.1.26,1.95-1.36,2.07-1.89.14-3.92.26-5.59,1.04-2.51,1.17-5.21,1.09-7.76,1.8-.52.15-1.02.39-1.62.63,7.51.46,13.48,3.68,18.43,9.15.1.37.1.74.1,1.22Z"/>
  <path class="cls-1" d="M128.82,88.68c4.14,2.67,6.32,6.6,7.56,11.07.61,2.22,1.03,4.56,1.06,6.85.12,8.92.1,17.84.03,26.76-.05,5.63-1.56,10.88-5.2,15.25-2.89,3.47-6.77,5.61-11.22,6.3-3.21.5-6.54.7-9.78.52-3.53-.2-6.8-1.53-9.59-3.82-.16-.13-.33-.25-.69-.53v29.79h-16.43v-94.79c2.44,0,4.85-.04,7.27.04.38.01.85.49,1.09.87,1.33,2.07,2.61,4.17,3.99,6.4,3.8-4.82,8.55-8.07,14.63-8.57,6.04-.5,12.02,0,17.28,3.84M105.45,138.73c2.84,1.05,5.79.62,8.69.57,1.81-.03,3.5-.87,4.75-2.23,1.65-1.8,2.14-4.09,2.13-6.43-.03-7.61-.14-15.23-.25-22.84-.04-2.88-2.06-5.39-4.86-6.35-2.78-.95-5.64-.54-8.44-.4-1.68.08-3.24.95-4.48,2.35-1.68,1.9-2.04,4.17-2.04,6.48,0,7.57.08,15.14.26,22.71.07,2.77,1.55,4.8,4.24,6.15Z"/>
  <path class="cls-3" d="M59.83,29.91c-.09.11-.22.17-.36.23.03-.09.07-.19.16-.32.06-.04.15.04.2.09Z"/>
</svg>