<?xml version="1.0" encoding="UTF-8"?>
<svg id="Layer_1" data-name="Layer 1" xmlns="http://www.w3.org/2000/svg" viewBox="0 0 485.1 230.05">
  <defs>
    <style>
      .cls-1 {
        fill: #d42027;
      }

      .cls-1, .cls-2 {
        stroke-width: 0px;
      }

      .cls-2 {
        fill: #fff;
      }
    </style>
  </defs>
  <polygon class="cls-1" points="0 49.18 39.59 0 126.69 0 126.69 186.71 91.69 137.95 91.69 47.93 0 49.18"/>
  <polygon class="cls-2" points="136.7 0 136.7 200.88 152.95 230.05 152.95 47.93 224.21 48.76 262.14 0 136.7 0"/>
  <g>
    <path class="cls-1" d="M211.21,188.82c0,10.12-11.48,11.74-19.09,11.74h-22.46v-41.98h20.77c9.24,0,19.45,1.65,19.45,11.11,0,3.88-1.93,7.02-5.24,8.75,4.38,2.23,6.57,5.79,6.57,10.37ZM183.59,175.06h9.42c2.5,0,3.17-1.37,3.17-2.47,0-1.17-.85-2.24-3.17-2.24h-9.42v4.71ZM196.87,185.95c0-2.33-2.25-2.87-5.02-2.87h-8.27v5.73h8.27c3.08,0,5.02-.53,5.02-2.86Z"/>
    <path class="cls-1" d="M256.28,158.59v25.24c0,9.83-5.42,17.74-21.1,17.74s-21.09-7.91-21.09-17.74v-25.24h13.92v24.08c0,5.89,4.13,7.14,7.17,7.14s7.17-1.25,7.17-7.14v-24.08h13.92Z"/>
    <path class="cls-1" d="M298.81,188.8v11.76h-39.45v-11.76l21.59-18.46h-20.6v-11.76h37.48v11.76l-21.43,18.46h22.42Z"/>
    <path class="cls-1" d="M340.6,188.8v11.76h-39.45v-11.76l21.59-18.46h-20.6v-11.76h37.48v11.76l-21.43,18.46h22.42Z"/>
  </g>
  <g>
    <path class="cls-2" d="M399.64,187.94c0,9.94-9.58,13.64-19.79,13.64-10.87,0-17.35-4.4-19.69-11.51l12.87-3.6c1.08,1.74,3.75,3.52,6.82,3.52s6.08-.9,6.08-3.21-2.72-3.21-6.08-3.21h-4.22v-8.22s4.69.03,4.7.03c2.82,0,5.11-1.17,5.11-3.12,0-2.13-2.29-3.12-5.11-3.12-3.92,0-5.49,2.65-5.85,3.79l-12.89-2.45c1.21-8.63,8.48-12.92,18.75-12.92,11.14,0,18.81,5.01,18.81,12.55,0,3.53-2.23,6.56-5.35,8.85,3.55,2.06,5.85,5.03,5.85,8.97Z"/>
    <path class="cls-2" d="M440.56,187.88c0,8.92-8.53,13.7-19.06,13.7s-19.06-5.26-19.06-20.72c0-18.48,9.99-23.3,20.35-23.3,8.91,0,15.1,4.39,17.19,10.32l-11.83,3.55c-.26-.51-1.57-3.66-5.86-3.66-6.18,0-6.15,7.94-6.15,7.94,1.94-1.16,6.24-1.54,7.87-1.54,10.53,0,16.56,4.55,16.56,13.7ZM426.86,186.46c0-2.48-2.25-3.54-5.36-3.54-2.84,0-5.09,1.17-5.09,3.54s2.33,3.54,5.09,3.54,5.36-1.12,5.36-3.54Z"/>
    <path class="cls-2" d="M484.62,179.57c0,15.93-10.62,22.01-20.65,22.01s-20.65-6.08-20.65-22.01,10.62-22.01,20.65-22.01,20.65,6.08,20.65,22.01ZM470.92,179.57c0-7.21-2.9-10.25-6.95-10.25s-6.95,3.04-6.95,10.25,2.9,10.25,6.95,10.25,6.95-3.04,6.95-10.25Z"/>
  </g>
  <path class="cls-1" d="M209.99,130.36h-23.56c-2.64,0-4.99,1.69-5.83,4.19l-2.38,7.09c-.84,2.5-3.19,4.19-5.83,4.19h-8.98c-4.25,0-7.22-4.22-5.79-8.22l27.01-75.31c.88-2.44,3.19-4.07,5.79-4.07h15.84c2.59,0,4.91,1.63,5.79,4.07l27,75.31c1.44,4-1.53,8.22-5.79,8.22h-9.23c-2.64,0-4.99-1.69-5.83-4.19l-2.38-7.09c-.84-2.5-3.19-4.19-5.83-4.19ZM206.25,105.78l-2.18-6.5c-1.88-5.6-9.8-5.58-11.66.02l-2.16,6.5c-1.32,3.98,1.64,8.08,5.83,8.08h4.34c4.2,0,7.16-4.12,5.83-8.1Z"/>
  <path class="cls-1" d="M454.51,132.77h-24.51c-2.75,0-5.19,1.75-6.06,4.36l-2.48,7.38c-.87,2.6-3.31,4.36-6.06,4.36h-9.34c-4.42,0-7.51-4.39-6.02-8.55l28.09-78.33c.91-2.54,3.32-4.23,6.02-4.23h16.47c2.7,0,5.11,1.69,6.02,4.23l28.08,78.33c1.49,4.16-1.59,8.55-6.02,8.55h-9.6c-2.75,0-5.19-1.75-6.06-4.36l-2.48-7.38c-.87-2.6-3.31-4.36-6.06-4.36ZM450.62,107.21l-2.27-6.76c-1.95-5.82-10.19-5.81-12.13.02l-2.24,6.76c-1.37,4.14,1.71,8.4,6.07,8.4h4.51c4.37,0,7.45-4.28,6.06-8.43Z"/>
  <path class="cls-1" d="M342.12,61.69v81.57c0,1.61-1.31,2.92-2.92,2.92h-15.27c-1.61,0-2.92-1.31-2.92-2.92v-33.2c0-3.25-4.52-4.06-5.65-1.01l-13.02,35.22c-.42,1.14-1.51,1.9-2.73,1.9h-12.97c-1.22,0-2.31-.76-2.73-1.9l-13.14-35.42c-1.13-3.05-5.65-2.24-5.65,1.01v33.39c0,1.61-1.31,2.92-2.92,2.92h-15.27c-1.61,0-2.92-1.31-2.92-2.92V61.69c0-1.61,1.31-2.92,2.92-2.92h20.04c1.19,0,2.26.72,2.71,1.83l20.85,51.91c.98,2.44,4.44,2.44,5.41,0l20.64-51.89c.44-1.11,1.51-1.84,2.71-1.84h19.91c1.61,0,2.92,1.31,2.92,2.92Z"/>
  <path class="cls-1" d="M412.21,99.46c-2.4,4.36-6.08,7.88-11.04,10.55-4.96,2.68-11.12,4.01-18.48,4.01h-10.38c-1.78,0-3.23,1.44-3.23,3.23v26.18c0,1.78-1.44,3.23-3.23,3.23h-15.49c-1.78,0-3.23-1.44-3.23-3.23V58.99c0-1.78,1.44-3.23,3.23-3.23h32.32c7.19,0,13.26,1.25,18.22,3.75,4.96,2.5,8.68,5.96,11.16,10.36,2.48,4.4,3.72,9.45,3.72,15.15,0,5.27-1.2,10.08-3.59,14.44ZM390.39,93.44c2.05-1.98,3.08-4.79,3.08-8.42s-1.02-6.43-3.08-8.41c-2.05-1.98-5.18-2.98-9.37-2.98h-8.71c-1.78,0-3.23,1.44-3.23,3.23v16.34c0,1.78,1.44,3.23,3.23,3.23h8.71c4.19,0,7.32-.99,9.37-2.98Z"/>
</svg>